<svg width="22" height="21" viewBox="0 0 22 21" fill="none" xmlns="http://www.w3.org/2000/svg">
<path d="M11 13.3914C12.8409 13.3914 14.3333 12.0969 14.3333 10.5001C14.3333 8.90325 12.8409 7.60876 11 7.60876C9.15901 7.60876 7.66663 8.90325 7.66663 10.5001C7.66663 12.0969 9.15901 13.3914 11 13.3914Z" stroke="#8A8F9E" stroke-width="2"/>
<path d="M12.8725 1.14463C12.4826 1 11.9884 1 11 1C10.0116 1 9.51744 1 9.12754 1.14463C8.60779 1.33747 8.19483 1.70735 7.97953 2.1729C7.88125 2.38542 7.84278 2.63257 7.82773 2.99309C7.80562 3.5229 7.50227 4.0133 6.98964 4.27838C6.47703 4.54346 5.8512 4.53356 5.32787 4.28582C4.97177 4.11723 4.71357 4.02349 4.45894 3.99347C3.90114 3.92769 3.33703 4.06308 2.89069 4.36984C2.55593 4.59991 2.30883 4.98325 1.81463 5.74993C1.32043 6.51662 1.07333 6.89996 1.01825 7.27466C0.944825 7.77426 1.09598 8.27953 1.43847 8.67932C1.59479 8.86182 1.81449 9.01515 2.15548 9.20705C2.65675 9.4892 2.97928 9.9698 2.97925 10.5C2.97922 11.0302 2.6567 11.5107 2.15547 11.7928C1.81444 11.9848 1.5947 12.1382 1.43837 12.3207C1.09587 12.7204 0.944719 13.2256 1.01816 13.7252C1.07323 14.0999 1.32033 14.4833 1.81452 15.25C2.30873 16.0166 2.55583 16.4001 2.89058 16.6301C3.33692 16.9368 3.90104 17.0722 4.45883 17.0065C4.71344 16.9764 4.97163 16.8827 5.32771 16.7141C5.85107 16.4664 6.47694 16.4565 6.9896 16.7215C7.50225 16.9867 7.80562 17.4771 7.82773 18.007C7.84279 18.3674 7.88125 18.6146 7.97953 18.8271C8.19483 19.2926 8.60779 19.6626 9.12754 19.8554C9.51744 20 10.0116 20 11 20C11.9884 20 12.4826 20 12.8725 19.8554C13.3922 19.6626 13.8052 19.2926 14.0204 18.8271C14.1187 18.6146 14.1572 18.3674 14.1723 18.0069C14.1944 17.4771 14.4977 16.9867 15.0103 16.7215C15.5229 16.4564 16.1488 16.4664 16.6722 16.7141C17.0283 16.8827 17.2865 16.9763 17.541 17.0064C18.0988 17.0722 18.663 16.9368 19.1093 16.6301C19.444 16.4 19.6912 16.0167 20.1853 15.2499C20.6796 14.4833 20.9267 14.0999 20.9818 13.7252C21.0551 13.2256 20.904 12.7203 20.5615 12.3206C20.4052 12.1381 20.1854 11.9847 19.8444 11.7928C19.3433 11.5107 19.0207 11.0301 19.0207 10.4999C19.0207 9.96971 19.3433 9.48929 19.8444 9.20724C20.1855 9.01524 20.4053 8.86191 20.5616 8.67932C20.9041 8.27959 21.0553 7.77433 20.9819 7.27472C20.9268 6.90002 20.6797 6.51668 20.1854 5.75C19.6913 4.98332 19.4441 4.59998 19.1094 4.36991C18.6631 4.06314 18.0989 3.92776 17.5411 3.99354C17.2866 4.02356 17.0284 4.11729 16.6722 4.28586C16.1489 4.53361 15.523 4.54352 15.0104 4.27841C14.4977 4.01331 14.1944 3.52288 14.1723 2.99304C14.1572 2.63256 14.1187 2.38541 14.0204 2.1729C13.8052 1.70735 13.3922 1.33747 12.8725 1.14463Z" stroke="#828592" stroke-width="2"/>
</svg>
